<svg xmlns="http://www.w3.org/2000/svg" viewBox="0 0 17 17" width="17" height="17"><style/><path id="Icon" d="M12.92 8.5c1.09-1.12 2.2-2.23 3.27-3.38a3.044 3.044 0 0 0-.08-4.23 3.044 3.044 0 0 0-4.23-.08C10.74 1.88 9.63 2.98 8.5 4.08 7.38 2.99 6.27 1.88 5.12.81 3.92-.31 2.05-.26.89.89a3.044 3.044 0 0 0-.08 4.23C1.88 6.26 2.98 7.38 4.08 8.5c-1.09 1.12-2.2 2.23-3.27 3.38-1.12 1.2-1.07 3.07.08 4.23a3.044 3.044 0 0 0 4.23.08c1.14-1.07 2.25-2.17 3.38-3.27 1.12 1.09 2.23 2.2 3.38 3.27 1.19 1.12 3.07 1.07 4.23-.08 1.16-1.16 1.2-3.03.08-4.23-1.07-1.14-2.17-2.25-3.27-3.38" fill-opacity=".212" fill="#848ca3"/></svg>