<svg width="47" height="47" viewBox="0 0 47 47" xmlns="http://www.w3.org/2000/svg"><g id="Symbols" stroke="none" stroke-width="1" fill="none" fill-rule="evenodd"><g id="Footer-" transform="translate(-1224 -114)"><g id="Footer"><g id="Sub" transform="translate(892 52)"><g id="Email" transform="translate(0 50)"><g id="Right" transform="translate(333 13)"><circle id="Oval" stroke="#90D7D4" stroke-width=".5" fill="#90D7D4" fill-rule="nonzero" cx="22.5" cy="22.5" r="22.5"/><g id="Arrow" transform="translate(13 15)" fill="#FFF"><path d="M11.89 15.233a.414.414 0 0 1-.29-.118.394.394 0 0 1 0-.566l7.09-6.932L11.6.684a.394.394 0 0 1 0-.566.415.415 0 0 1 .579 0l7.38 7.216c.16.156.16.41 0 .566l-7.38 7.215a.41.41 0 0 1-.29.118" id="Fill-203"/><path d="M19.27 8.017H.41a.406.406 0 0 1-.41-.4c0-.222.184-.401.41-.401h18.86c.226 0 .41.18.41.4a.406.406 0 0 1-.41.401" id="Fill-204"/></g></g></g></g></g></g></g></svg>