<svg width="46" height="46" viewBox="0 0 46 46" xmlns="http://www.w3.org/2000/svg" xmlns:xlink="http://www.w3.org/1999/xlink"><defs><path d="M0 22.623C0 10.129 10.074 0 22.5 0S45 10.129 45 22.623c0 12.494-10.074 22.623-22.5 22.623S0 35.117 0 22.623z" id="path-1"/></defs><g id="Symbols" stroke="none" stroke-width="1" fill="none" fill-rule="evenodd"><g id="Footer-" transform="translate(-355 -210)"><g id="Footer"><g id="Group-2" transform="translate(153 209)"><g id="Pin" transform="translate(202.5 1)"><mask id="mask-2" fill="#fff"><use xlink:href="#path-1"/></mask><use id="back" fill="#FDAB75" xlink:href="#path-1"/><path d="M22.5 11c-6.627 0-12 5.597-12 12.5 0 5.145 2.985 9.564 7.249 11.483-.03-.871-.001-1.91.21-2.853.234-1.017 1.552-6.836 1.552-6.836s-.385-.802-.385-1.985c0-1.858 1.035-3.248 2.322-3.248 1.096 0 1.626.86 1.626 1.886 0 1.146-.703 2.861-1.065 4.45-.3 1.33.643 2.417 1.902 2.417 2.28 0 3.816-3.053 3.816-6.671 0-2.748-1.775-4.807-5.01-4.807-3.651 0-5.93 2.838-5.93 6.008 0 1.093.31 1.865.796 2.46.223.275.253.385.172.701-.059.23-.189.785-.244 1.007-.08.318-.328.43-.604.312-1.681-.714-2.466-2.633-2.466-4.79 0-3.565 2.885-7.839 8.607-7.839 4.6 0 7.625 3.467 7.625 7.186 0 4.924-2.627 8.599-6.498 8.599-1.3 0-2.525-.733-2.941-1.563 0 0-.702 2.888-.848 3.448-.253.953-.74 1.905-1.191 2.655 1.048.312 2.157.48 3.305.48 6.627 0 12-5.597 12-12.5S29.127 11 22.5 11" id="Fill-15" fill="#FFF" mask="url(#mask-2)"/></g></g></g></g></g></svg>