<svg width="46" height="46" viewBox="0 0 46 46" xmlns="http://www.w3.org/2000/svg"><g id="Symbols" stroke="none" stroke-width="1" fill="none" fill-rule="evenodd"><g id="Footer-" transform="translate(-220 -209)"><g id="Footer"><g id="Group-2" transform="translate(153 209)"><g id="Twitter" transform="translate(67.5 .754)"><path d="M0 22.623C0 10.129 10.074 0 22.5 0S45 10.129 45 22.623c0 12.494-10.074 22.623-22.5 22.623S0 35.117 0 22.623z" id="back" fill="#FDAB75"/><path d="M21.826 18.388l.047.783-.787-.096c-2.864-.367-5.366-1.613-7.491-3.706l-1.039-1.039-.267.767c-.567 1.71-.205 3.515.976 4.729.629.671.487.767-.599.367-.377-.127-.708-.223-.74-.175-.11.112.268 1.565.567 2.14.41.8 1.244 1.582 2.156 2.045l.772.368-.913.016c-.882 0-.913.016-.819.351.315 1.039 1.559 2.141 2.943 2.62l.976.336-.85.51a8.824 8.824 0 0 1-4.217 1.183c-.709.016-1.291.08-1.291.128 0 .16 1.92 1.054 3.037 1.406 3.353 1.038 7.335.59 10.325-1.182 2.124-1.262 4.25-3.77 5.24-6.199.536-1.294 1.07-3.658 1.07-4.793 0-.735.048-.83.93-1.709.519-.511 1.007-1.07 1.101-1.23.157-.304.142-.304-.66-.032-1.339.48-1.528.415-.867-.304.488-.51 1.07-1.437 1.07-1.709 0-.048-.235.032-.503.176-.283.16-.913.4-1.385.543l-.85.271-.771-.527c-.425-.287-1.023-.607-1.338-.703-.802-.223-2.03-.191-2.754.064-1.967.72-3.21 2.572-3.069 4.601z" id="Shape" fill="#FFF"/></g></g></g></g></g></svg>