<svg width="19" height="20" viewBox="0 0 19 20" xmlns="http://www.w3.org/2000/svg"><g id="icons/-bath" stroke="none" stroke-width="1" fill="none" fill-rule="evenodd"><g fill="#858DA4" fill-rule="nonzero" id="Group"><path d="M.75 12.759l.643 3.379c.143 1.216 1.155 2.133 2.36 2.138h11.493c1.198-.002 2.207-.907 2.357-2.115l.646-3.402H.752zm-.241-1.725a.513.513 0 0 0-.509.518c0 .285.228.517.509.517H18.49a.513.513 0 0 0 .509-.517.513.513 0 0 0-.509-.518H.51zm3.901 7.932v.69c0 .19.153.344.34.344h.679a.342.342 0 0 0 .339-.345v-.69H4.41zm8.822 0v.69c0 .19.152.344.34.344h.678c.187 0 .34-.154.34-.345v-.69h-1.358zM1.357 10.69V2.424a2.1 2.1 0 0 1 .8-1.641A2.504 2.504 0 0 1 4.079.386c.367.058.719.189 1.035.386.325.253.626.536.9.845a.16.16 0 0 0 .03.028l-.977.952-.628-.594a1.01 1.01 0 0 0-1.109-.195 1.04 1.04 0 0 0-.615.958v7.924H1.357z" id="Shape"/><path d="M5.707 5.234a.336.336 0 0 1-.516-.038 2.443 2.443 0 0 1 .252-3.112 2.347 2.347 0 0 1 3.062-.256.346.346 0 0 1 .038.524L5.707 5.234z" id="Shape"/></g></g></svg>