<svg width="19" height="16" viewBox="0 0 19 16" xmlns="http://www.w3.org/2000/svg"><g id="icons-/-bed" stroke="none" stroke-width="1" fill="none" fill-rule="evenodd"><path id="Fill-1" fill="#858DA4" d="M0 15.273h18.296V8H0z"/><g id="Group-8"><path d="M18.296 16V8" id="Stroke-2" stroke="#858DA4" stroke-width="1.429" stroke-linecap="round"/><path d="M0 16V8" id="Stroke-4" stroke="#858DA4" stroke-width="1.429" stroke-linecap="round"/><path d="M16.185 0H2.111C1.334 0 .704.652.704 1.455v5.09H2.11V5.091c0-.402.315-.727.704-.727H7.74c.389 0 .703.325.703.727v1.454h1.408V5.091c0-.402.314-.727.704-.727h4.925c.39 0 .704.325.704.727v1.454h1.408v-5.09c0-.803-.63-1.455-1.408-1.455" id="Fill-6" fill="#858DA4"/></g></g></svg>