<svg width="21" height="16" viewBox="0 0 21 16" xmlns="http://www.w3.org/2000/svg"><g id="icons-/-car" stroke="none" stroke-width="1" fill="none" fill-rule="evenodd"><path d="M3.482 5.55c.426-.957.824-1.94 1.356-3.035.292-.52.611-.984 1.196-1.039h8.958c.585.055.904.52 1.197 1.04.531 1.093.93 2.077 1.355 3.034H3.482zm4.2 3.938h5.636c.345 0 .611.3.611.656 0 .328-.266.629-.611.629H7.682c-.319 0-.611-.301-.611-.63 0-.355.292-.655.611-.655zM6.034 0c-.957 0-1.542.355-2.34 1.504l-1.328 3.09H.346c-.32 0-.904 1.695 1.222 1.75L.851 8.12c.026 2.269.026 4.51.026 6.753a.84.84 0 0 0 .824.848h2.765c.452 0 .797-.383.797-.848v-1.86h10.474v1.86a.84.84 0 0 0 .824.848h2.764c.452 0 .798-.383.798-.848 0-2.242.026-4.484.026-6.753l-.717-1.778c2.153-.054 1.541-1.75 1.249-1.75h-2.02l-1.33-3.09C16.535.356 15.95 0 14.993 0H6.034zm11.112 8.285c-.718 0-1.33.601-1.33 1.367 0 .738.612 1.367 1.33 1.367.744 0 1.329-.63 1.329-1.367 0-.766-.585-1.367-1.33-1.367zm-13.265 0c.718 0 1.33.601 1.33 1.367 0 .738-.612 1.367-1.33 1.367-.744 0-1.33-.63-1.33-1.367 0-.766.586-1.367 1.33-1.367z" fill="#858DA4" id="Shape"/></g></svg>