<svg width="24" height="24" viewBox="0 0 24 24" xmlns="http://www.w3.org/2000/svg"><g id="Desktop" stroke="none" stroke-width="1" fill="none" fill-rule="evenodd"><g id="1.1-Select-Location" transform="translate(-1222 -21)" fill="#FFF"><g id="Header"><g transform="translate(1222 21)" id="Icon"><path d="M12 0C5.373 0 0 5.373 0 12s5.373 12 12 12 12-5.373 12-12S18.627 0 12 0m0 19.6c-3.252 0-6-1.603-6-3.5s2.748-3.5 6-3.5 6 1.603 6 3.5-2.748 3.5-6 3.5M9 7.8C9 5.705 10.346 4 12 4s3 1.705 3 3.8c0 2.095-1.346 3.8-3 3.8S9 9.895 9 7.8m5.17 4.023C15.269 10.968 16 9.489 16 7.8 16 5.149 14.209 3 12 3S8 5.149 8 7.8c0 1.689.731 3.168 1.83 4.023C7.027 12.411 5 14.102 5 16.1c0 2.485 3.134 4.5 7 4.5s7-2.015 7-4.5c0-1.998-2.027-3.689-4.83-4.277" id="Outline"/></g></g></g></g></svg>