<svg width="15" height="18" viewBox="0 0 15 18" xmlns="http://www.w3.org/2000/svg"><g id="Symbols" stroke="none" stroke-width="1" fill="none" fill-rule="evenodd"><g id="Mobile-/-Header" transform="translate(-244 -27)"><g fill-rule="nonzero" transform="translate(240 25)" id="Icons-/-ic_bag"><path id="Rectangle-Copy-2" d="M0 0h22.4v22.4H0z"/><g id="shopping_bag" transform="translate(4 2.4)" fill="#FDAB75"><path d="M14.372 15.346L13.2 4.8A1.2 1.2 0 0 0 12 3.6H2.4a1.2 1.2 0 0 0-1.2 1.2L.028 15.346A1.2 1.2 0 0 0 1.2 16.8h12a1.2 1.2 0 0 0 1.172-1.454zM10.2 3.656V3c0-1.654-1.346-3-3-3s-3 1.346-3 3v.655A.897.897 0 0 0 4.5 5.4a.9.9 0 0 0 .9-.9V3c0-.992.808-1.8 1.8-1.8S9 2.008 9 3v1.5a.9.9 0 0 0 1.8 0 .897.897 0 0 0-.6-.845z" id="Shape"/></g></g></g></g></svg>