<svg aria-hidden="true" style="position: absolute; width: 0; height: 0; overflow: hidden;" version="1.1" xmlns="http://www.w3.org/2000/svg" xmlns:xlink="http://www.w3.org/1999/xlink">
<defs>
<symbol id="facebook" viewBox="0 0 32 32">
<path d="M16 0c-8.836 0-16 7.164-16 16s7.164 16 16 16 16-7.164 16-16-7.164-16-16-16zM20 10.667h-1.8c-0.717 0-0.867 0.295-0.867 1.037v1.629h2.667l-0.279 2.667h-2.388v9.333h-4v-9.333h-2.667v-2.667h2.667v-3.077c0-2.359 1.241-3.589 4.039-3.589h2.628v4z"></path>
</symbol>
<symbol id="google-plus" viewBox="0 0 32 32">
<path d="M16 0c-8.836 0-16 7.164-16 16s7.164 16 16 16 16-7.164 16-16-7.164-16-16-16zM12.111 21.444c-3.011 0-5.444-2.433-5.444-5.444s2.433-5.444 5.444-5.444c1.471 0 2.699 0.536 3.647 1.423l-1.476 1.424c-0.405-0.389-1.112-0.84-2.171-0.84-1.859 0-3.375 1.54-3.375 3.439s1.517 3.439 3.375 3.439c2.155 0 2.965-1.549 3.088-2.349h-3.088v-1.867h5.14c0.048 0.272 0.085 0.544 0.085 0.903 0.001 3.109-2.084 5.317-5.225 5.317zM25.333 16.777h-2.333v2.333h-1.556v-2.333h-2.333v-1.555h2.333v-2.333h1.556v2.333h2.333v1.555z"></path>
</symbol>
<symbol id="linkedin" viewBox="0 0 32 32">
<path d="M16 0c-8.836 0-16 7.164-16 16s7.164 16 16 16 16-7.164 16-16-7.164-16-16-16zM13.333 21.333h-2.667v-8h2.667v8zM12 12.145c-0.809 0-1.467-0.661-1.467-1.479 0-0.816 0.656-1.479 1.467-1.479s1.467 0.663 1.467 1.479c0 0.817-0.657 1.479-1.467 1.479zM22.667 21.333h-2.664v-3.815c0-2.508-2.669-2.296-2.669 0v3.815h-2.667v-8h2.667v1.457c1.163-2.155 5.333-2.315 5.333 2.064v4.479z"></path>
</symbol>
<symbol id="twitter" viewBox="0 0 32 32">
<path d="M16 0c-8.836 0-16 7.164-16 16s7.164 16 16 16 16-7.164 16-16-7.164-16-16-16zM24.088 12.86c0.244 5.387-3.773 11.392-10.885 11.392-2.163 0-4.175-0.635-5.869-1.721 2.032 0.24 4.060-0.325 5.669-1.585-1.675-0.031-3.089-1.139-3.579-2.66 0.601 0.115 1.193 0.081 1.731-0.065-1.841-0.371-3.113-2.029-3.072-3.804 0.517 0.287 1.107 0.459 1.735 0.479-1.705-1.14-2.188-3.392-1.185-5.113 1.888 2.317 4.711 3.841 7.893 4.001-0.559-2.395 1.259-4.703 3.732-4.703 1.1 0 2.096 0.465 2.795 1.209 0.872-0.171 1.693-0.491 2.432-0.929-0.287 0.895-0.893 1.644-1.684 2.119 0.775-0.093 1.513-0.299 2.199-0.604-0.512 0.771-1.16 1.445-1.911 1.985z"></path>
</symbol>
</defs>
</svg>
