<svg width="20" height="18" viewBox="0 0 20 18" xmlns="http://www.w3.org/2000/svg"><g id="Symbols" stroke="none" stroke-width="1" fill="none" fill-rule="evenodd"><g id="Mobile-/-Header" transform="translate(-207 -27)"><g fill-rule="nonzero" transform="translate(206 25)" id="Icons-/-ic_wish"><path id="Rectangle-Copy" d="M0 0h22.4v22.4H0z"/><path d="M12.213 19.638A1.593 1.593 0 0 1 11.2 20c-.384 0-.737-.136-1.013-.362C7.464 17.501 1.6 12.678 1.6 7.636A5.236 5.236 0 0 1 6.836 2.4C9.6 2.4 11.2 4.8 11.2 4.8c.005-.008 1.604-2.4 4.364-2.4A5.236 5.236 0 0 1 20.8 7.636c0 5.042-5.864 9.865-8.587 12.002z" id="Combined-Shape-Copy" fill="#90D7D4"/></g></g></g></svg>