<svg width="27" height="27" viewBox="0 0 26 26" xmlns="http://www.w3.org/2000/svg"><g id="icons-/-garage" stroke="none" stroke-width="1" fill="none" fill-rule="evenodd"><g id="noun_Garage_129968" transform="translate(3 6)" fill="#0D1B42" fill-rule="nonzero"><g id="Group"><path d="M15.833 8.586a.79.79 0 0 0-.797-.784h-.372l-1.04-3.243-.013-.026a1.957 1.957 0 0 0-.744-.854 2.031 2.031 0 0 0-1.093-.346H7.271a2.027 2.027 0 0 0-1.091.346 1.962 1.962 0 0 0-.744.854l-.012.026-1.041 3.243H4.13a.79.79 0 0 0-.798.784v3.508h.757V13.1c0 .59.487 1.067 1.088 1.067.601 0 1.088-.476 1.088-1.067v-1.006h6.598V13.1c0 .589.487 1.067 1.088 1.067.6 0 1.087-.478 1.087-1.067v-1.006h.794V8.586zm-1.666.58a.834.834 0 1 1-.002 1.669.834.834 0 0 1 .002-1.668zm-7.45-4.555a.84.84 0 0 1 .275-.3.765.765 0 0 1 .395-.144h4.39a.763.763 0 0 1 .399.145c.13.088.232.211.273.299l.884 2.889h-7.5l.885-2.889zM5 10.833a.833.833 0 1 1 0-1.666.833.833 0 0 1 0 1.666z" id="Shape"/><path id="Shape" d="M19.167 14.167h-2.03V2.008H2.03v12.159H0V0h19.167z"/></g></g></g></svg>