<svg width="100" height="100" viewBox="0 0 100 100" xmlns="http://www.w3.org/2000/svg"><g id="Desktop" stroke="none" stroke-width="1" fill="none" fill-rule="evenodd"><g id="1.1-Store-–-Header" transform="translate(-49 -595)"><g id="Hero" transform="translate(0 234)"><g id="Slider" transform="translate(50 319)"><g id="Right-Copy" transform="matrix(-1 0 0 1 98 43)"><circle id="Oval" stroke="#FFF" fill-rule="nonzero" cx="49" cy="49" r="49"/><g id="Group-26" transform="translate(37 40)" fill="#FFF"><path d="M14.5 19a.5.5 0 0 1-.354-.853L22.793 9.5 14.146.853a.5.5 0 1 1 .707-.706l9 9a.497.497 0 0 1 0 .706l-9 9A.495.495 0 0 1 14.5 19" id="Fill-203"/><path d="M23.5 10H.5a.5.5 0 0 1 0-1h23a.5.5 0 0 1 0 1" id="Fill-204"/></g></g></g></g></g></g></svg>