<svg width="39" height="49" viewBox="0 0 39 49" xmlns="http://www.w3.org/2000/svg"><g id="Symbols" stroke="none" stroke-width="1" fill="none" fill-rule="evenodd"><g id="Footer-" transform="translate(-150 -43)" fill="#FEAB76"><g id="MMW_top_logo" transform="translate(150 43)"><g id="Group-13"><g id="Group-3" transform="translate(0 .689)"><path d="M16.783 11.13a17.955 17.955 0 0 1 4.948 0c8.869 1.214 15.557 8.893 15.557 17.862 0 9.941-8.087 18.028-18.029 18.028-9.944 0-18.034-8.087-18.034-18.028 0-8.97 6.688-16.648 15.558-17.862zM11.19 4.495h4.047l1.908 5.366c-.176.02-.353.03-.53.055-.3.04-.6.09-.896.144L11.19 4.495zm2.912-3.432l.928 2.82h-3.746l2.818-2.82zm4.406-.262l-2.916 2.827-.93-2.827h3.846zm3.718 3.081h-6.017L19.26.925l2.967 2.957zM23.83.801l-1.056 2.763L20.002.8h3.828zm.563.245l2.836 2.836h-3.92l1.084-2.836zm-3.733 8.74c-.96-.07-1.925-.065-2.888.01l-1.885-5.301h6.554l-1.78 5.292zm2.134.274a20.208 20.208 0 0 0-.894-.143c-.205-.03-.41-.043-.616-.065l1.802-5.357h4.237l-4.529 5.565zM19.26 48.246c10.617 0 19.255-8.637 19.255-19.254 0-9.041-6.366-16.852-15.045-18.79l4.736-5.821c.01-.012.014-.027.022-.039.009-.016.018-.03.025-.047a.314.314 0 0 0 .016-.08c0-.01.005-.017.005-.026v-.006a.306.306 0 0 0-.088-.212L24.492.278a.308.308 0 0 0-.217-.09H14.238c-.023 0-.044.008-.067.014-.01.002-.019 0-.028.003l-.007.004a.313.313 0 0 0-.074.042c-.01.007-.02.012-.029.02-.004.003-.008.003-.011.007l-3.693 3.693a.306.306 0 0 0-.088.211l-.001.007c0 .01.004.017.005.027a.3.3 0 0 0 .016.079c.007.017.017.031.025.047.008.012.013.027.022.039l4.736 5.82C6.364 12.142 0 19.952 0 28.993 0 39.61 8.64 48.247 19.26 48.247z" id="Fill-1"/></g><path d="M17.728 35.311a.614.614 0 0 0 .866 0l10.4-10.4a.611.611 0 1 0-.865-.866l-9.968 9.967-5.217-5.217a.613.613 0 1 0-.866.866l5.65 5.65z" id="Fill-4"/></g></g></g></g></svg>