<svg width="264" height="49" viewBox="0 0 264 49" xmlns="http://www.w3.org/2000/svg"><g id="Desktop" stroke="none" stroke-width="1" fill="none" fill-rule="evenodd"><g id="1.1-Store-–-Header" transform="translate(-150 -15)"><g id="Header"><g id="MMW_top_logo" transform="translate(150 15)"><g id="Group-13" fill="#FEAB76"><g id="Group-3" transform="translate(0 .689)"><path d="M16.783 11.13a17.955 17.955 0 0 1 4.948 0c8.869 1.214 15.557 8.893 15.557 17.862 0 9.941-8.087 18.028-18.029 18.028-9.944 0-18.034-8.087-18.034-18.028 0-8.97 6.688-16.648 15.558-17.862zM11.19 4.495h4.047l1.908 5.366c-.176.02-.353.03-.53.055-.3.04-.6.09-.896.144L11.19 4.495zm2.912-3.432l.928 2.82h-3.746l2.818-2.82zm4.406-.262l-2.916 2.827-.93-2.827h3.846zm3.718 3.081h-6.017L19.26.925l2.967 2.957zM23.83.801l-1.056 2.763L20.002.8h3.828zm.563.245l2.836 2.836h-3.92l1.084-2.836zm-3.733 8.74c-.96-.07-1.925-.065-2.888.01l-1.885-5.301h6.554l-1.78 5.292zm2.134.274a20.208 20.208 0 0 0-.894-.143c-.205-.03-.41-.043-.616-.065l1.802-5.357h4.237l-4.529 5.565zM19.26 48.246c10.617 0 19.255-8.637 19.255-19.254 0-9.041-6.366-16.852-15.045-18.79l4.736-5.821c.01-.012.014-.027.022-.039.009-.016.018-.03.025-.047a.314.314 0 0 0 .016-.08c0-.01.005-.017.005-.026v-.006a.306.306 0 0 0-.088-.212L24.492.278a.308.308 0 0 0-.217-.09H14.238c-.023 0-.044.008-.067.014-.01.002-.019 0-.028.003l-.007.004a.313.313 0 0 0-.074.042c-.01.007-.02.012-.029.02-.004.003-.008.003-.011.007l-3.693 3.693a.306.306 0 0 0-.088.211l-.001.007c0 .01.004.017.005.027a.3.3 0 0 0 .016.079c.007.017.017.031.025.047.008.012.013.027.022.039l4.736 5.82C6.364 12.142 0 19.952 0 28.993 0 39.61 8.64 48.247 19.26 48.247z" id="Fill-1"/></g><path d="M17.728 35.311a.614.614 0 0 0 .866 0l10.4-10.4a.611.611 0 1 0-.865-.866l-9.968 9.967-5.217-5.217a.613.613 0 1 0-.866.866l5.65 5.65z" id="Fill-4"/></g><g id="Group-11" opacity=".8" transform="translate(52.941 19.608)" fill="#494949"><path id="Fill-6" d="M14.086 4.8v11.416h3.28V1.33h-4.94l-3.45 9.714h-.041L5.508 1.33H.546v14.886h3.28V4.8h.042l3.764 11.416h2.501L14.044 4.8z"/><path d="M22.864 12.39c.23-.197.511-.344.84-.441.33-.1.673-.16 1.03-.18.358-.02.656-.03.894-.03h.778v.672c0 .321-.066.602-.199.84a1.719 1.719 0 0 1-.536.588 2.62 2.62 0 0 1-.768.358 3.126 3.126 0 0 1-.893.126c-.35 0-.687-.09-1.01-.274-.322-.18-.483-.462-.483-.84 0-.35.116-.624.347-.819m-2.281 3.28c.336.266.726.465 1.167.6.44.13.9.197 1.376.197.645 0 1.258-.117 1.84-.356a2.964 2.964 0 0 0 1.398-1.178h.042v1.283h2.903v-5.193c0-.856-.07-1.608-.21-2.26-.142-.652-.39-1.202-.748-1.652-.357-.448-.833-.788-1.43-1.02-.595-.23-1.355-.345-2.28-.345-.842 0-1.655.135-2.44.409a5.806 5.806 0 0 0-2.06 1.23l1.682 1.725a3.87 3.87 0 0 1 1.146-.895c.428-.216.9-.325 1.42-.325a2.15 2.15 0 0 1 1.418.495c.4.328.6.773.6 1.334-.435 0-.909.007-1.42.02a14.65 14.65 0 0 0-1.535.127 9.33 9.33 0 0 0-1.482.325c-.477.15-.9.355-1.272.622-.37.267-.666.602-.882 1.009-.219.407-.326.903-.326 1.492 0 .519.097.975.294 1.367.196.392.462.722.799.99" id="Fill-8"/><path d="M35.341 8.742c.254-.147.582-.22.99-.22.405 0 .716.083.934.251.217.167.38.385.484.652.106.267.167.558.19.872.02.315.03.62.03.914v5.005h3.154V10.58c0-.686-.05-1.324-.147-1.913a4.125 4.125 0 0 0-.556-1.534 2.79 2.79 0 0 0-1.147-1.02c-.49-.247-1.136-.368-1.935-.368-.378 0-.729.048-1.05.147-.322.097-.61.224-.863.378a3.064 3.064 0 0 0-.65.525 2.564 2.564 0 0 0-.421.59h-.043V5.996h-3.027v10.219h3.154v-5.089c0-.335.021-.658.064-.966.041-.308.128-.585.262-.83.132-.247.326-.442.577-.589" id="Fill-10"/><path d="M47.368 14.324a2.02 2.02 0 0 1-1.009-.274c-.322-.182-.483-.463-.483-.84 0-.35.115-.625.346-.82.23-.197.512-.344.842-.441.328-.1.672-.16 1.03-.18.357-.02.655-.03.893-.03h.779v.671c0 .322-.067.603-.2.84-.134.24-.312.435-.536.589a2.608 2.608 0 0 1-.768.358 3.1 3.1 0 0 1-.894.127m2.355.609h.043v1.283h2.902v-5.193c0-.856-.07-1.608-.21-2.26-.141-.652-.39-1.202-.748-1.652-.356-.448-.834-.788-1.429-1.02-.596-.23-1.357-.345-2.28-.345a7.35 7.35 0 0 0-2.441.409 5.795 5.795 0 0 0-2.06 1.23l1.682 1.725c.337-.38.718-.676 1.146-.895.428-.216.9-.325 1.419-.325.547 0 1.02.164 1.42.495.399.328.599.773.599 1.334-.435 0-.91.007-1.42.02-.512.016-1.024.057-1.536.127a9.293 9.293 0 0 0-1.481.325c-.478.15-.9.355-1.272.622-.37.267-.667.602-.882 1.009-.219.407-.327.903-.327 1.492 0 .519.097.975.294 1.367.197.392.463.722.8.99.337.264.724.464 1.166.598.442.132.9.198 1.377.198.646 0 1.258-.118 1.84-.356a2.973 2.973 0 0 0 1.398-1.178" id="Fill-12"/><path d="M62.275 12a2.466 2.466 0 0 1-.535.799 2.74 2.74 0 0 1-.81.558c-.31.14-.638.21-.988.21-.365 0-.699-.07-1-.21a2.793 2.793 0 0 1-.8-.558 2.466 2.466 0 0 1-.723-1.756 2.458 2.458 0 0 1 .724-1.755 2.84 2.84 0 0 1 .8-.558 2.364 2.364 0 0 1 .999-.208c.35 0 .678.07.988.208.308.14.579.327.81.558.23.231.408.498.535.799.127.301.19.621.19.956 0 .338-.063.656-.19.957m3.09 3.354V5.998h-2.9v1.345h-.043a3.224 3.224 0 0 0-.504-.557c-.21-.19-.462-.36-.757-.514a4.75 4.75 0 0 0-2.23-.526c-.728 0-1.38.15-1.955.452a4.627 4.627 0 0 0-1.46 1.187c-.4.491-.707 1.06-.925 1.702a6.151 6.151 0 0 0-.327 1.977c0 .772.12 1.48.358 2.125a4.867 4.867 0 0 0 1.02 1.67c.441.47.97.835 1.588 1.094.616.26 1.303.39 2.06.39.477 0 .985-.103 1.524-.305.539-.204.99-.551 1.357-1.042h.04v.99c0 .728-.227 1.327-.682 1.796-.455.47-1.167.705-2.134.705-.645 0-1.237-.12-1.777-.358a6.655 6.655 0 0 1-1.546-.967l-1.745 2.608a6.105 6.105 0 0 0 2.44 1.187c.884.204 1.78.305 2.69.305 1.992 0 3.474-.501 4.447-1.503.976-1.002 1.462-2.47 1.462-4.405" id="Fill-14"/><path d="M70.726 9.95a1.99 1.99 0 0 1 .62-1.335 2.37 2.37 0 0 1 .684-.43 2.38 2.38 0 0 1 .926-.168c.574 0 1.043.188 1.408.566.364.38.539.835.525 1.367h-4.163zm6.025-2.743a4.122 4.122 0 0 0-1.515-1.083c-.595-.253-1.257-.378-1.986-.378a6.41 6.41 0 0 0-2.217.378 5.302 5.302 0 0 0-1.81 1.083A5.077 5.077 0 0 0 68.015 8.9c-.294.658-.441 1.394-.441 2.206 0 .813.147 1.55.441 2.208a5.077 5.077 0 0 0 1.21 1.693c.511.47 1.114.83 1.809 1.082a6.41 6.41 0 0 0 2.217.379c.827 0 1.626-.175 2.397-.526a5.023 5.023 0 0 0 1.914-1.492l-2.208-1.618a3.544 3.544 0 0 1-.936.893c-.358.23-.796.347-1.314.347-.618 0-1.136-.18-1.556-.538-.42-.357-.694-.836-.82-1.438h7.317v-.99c0-.812-.113-1.548-.336-2.206a4.947 4.947 0 0 0-.957-1.693z" id="Fill-16"/><path id="Fill-18" d="M93.75 11.046h-.042l-3.427-9.714h-4.962v14.886h3.28V4.802h.042l3.764 11.416h2.501l3.911-11.416h.042v11.416h3.28V1.332H97.2z"/><path d="M109.792 12.748h-.042L107.122 6h-3.406l4.478 10.302-.231.588a14.23 14.23 0 0 1-.316.737c-.097.21-.22.39-.367.537a1.429 1.429 0 0 1-.558.335c-.224.077-.511.116-.862.116-.504 0-.995-.106-1.471-.314l-.42 2.585a7.415 7.415 0 0 0 2.354.378c.757 0 1.367-.073 1.829-.221a2.902 2.902 0 0 0 1.146-.652c.301-.287.55-.641.746-1.06.196-.421.4-.906.61-1.451L115.28 6h-3.238l-2.25 6.748z" id="Fill-20"/><path id="Fill-22" d="M136.81 11.13h-.042l-3.09-9.798h-3.05l-3.11 9.546h-.043l-2.376-9.546h-3.574l4.415 14.886h2.817l3.28-10.302h.042l3.28 10.302h2.923l4.352-14.886h-3.322z"/><path d="M146.166 9.952c.014-.251.074-.494.179-.725.106-.231.253-.435.44-.61.191-.174.419-.318.686-.43.264-.112.574-.168.923-.168.575 0 1.046.188 1.41.566.365.38.539.835.526 1.367h-4.164zm6.024-2.743a4.104 4.104 0 0 0-1.513-1.083c-.597-.253-1.26-.378-1.988-.378-.784 0-1.523.125-2.218.378a5.317 5.317 0 0 0-1.808 1.083 5.073 5.073 0 0 0-1.209 1.693c-.294.659-.44 1.394-.44 2.207 0 .812.146 1.548.44 2.207a5.073 5.073 0 0 0 1.209 1.693c.511.47 1.115.831 1.808 1.083a6.423 6.423 0 0 0 2.218.378c.828 0 1.627-.175 2.397-.526a4.991 4.991 0 0 0 1.913-1.492l-2.207-1.618a3.52 3.52 0 0 1-.937.893c-.356.23-.795.348-1.314.348-.615 0-1.134-.18-1.555-.538-.42-.358-.693-.837-.82-1.44h7.317v-.988c0-.813-.113-1.548-.335-2.207a4.95 4.95 0 0 0-.958-1.693z" id="Fill-24"/><path d="M162.555 12.98c-.441.477-1.061.714-1.86.714-.799 0-1.42-.237-1.861-.713-.442-.478-.663-1.1-.663-1.872 0-.77.22-1.395.663-1.872.44-.476 1.062-.714 1.861-.714.799 0 1.419.238 1.86.714.441.477.663 1.102.663 1.872 0 .772-.222 1.394-.663 1.872zm.411-5.887h-.043a2.942 2.942 0 0 0-1.398-1.04 5.41 5.41 0 0 0-1.84-.305c-.728 0-1.38.15-1.955.452a4.5 4.5 0 0 0-1.461 1.208 5.634 5.634 0 0 0-.926 1.734 6.436 6.436 0 0 0-.325 2.05c0 .772.118 1.48.357 2.124a4.849 4.849 0 0 0 1.02 1.672c.442.47.97.835 1.587 1.093.617.26 1.303.389 2.061.389.35 0 .69-.048 1.02-.147a4.42 4.42 0 0 0 .904-.379 3.722 3.722 0 0 0 1.209-1.07h.042v1.344h2.901V.322h-3.153v6.77z" id="Fill-26"/><path d="M175.802 12.98c-.441.477-1.063.714-1.861.714-.8 0-1.42-.237-1.86-.713-.442-.478-.663-1.1-.663-1.872 0-.77.22-1.395.663-1.872.44-.476 1.06-.714 1.86-.714.798 0 1.42.238 1.861.714.441.477.663 1.102.663 1.872 0 .772-.222 1.394-.663 1.872zm.409-5.887h-.041a2.953 2.953 0 0 0-1.4-1.04 5.404 5.404 0 0 0-1.84-.305c-.728 0-1.38.15-1.955.452a4.516 4.516 0 0 0-1.46 1.208 5.664 5.664 0 0 0-.925 1.734 6.437 6.437 0 0 0-.327 2.05c0 .772.12 1.48.358 2.124a4.859 4.859 0 0 0 1.02 1.672c.441.47.97.835 1.587 1.093.617.26 1.304.389 2.06.389.351 0 .692-.048 1.02-.147.33-.098.632-.225.906-.379a3.727 3.727 0 0 0 1.207-1.07h.044v1.344h2.9V.322h-3.154v6.77z" id="Fill-28"/><path id="Fill-30" d="M181.93 16.218h3.153V6h-3.153z"/><path d="M183.507.954c-.505 0-.936.178-1.293.535a1.762 1.762 0 0 0-.536 1.294c0 .504.178.935.536 1.294.357.357.788.535 1.293.535.505 0 .936-.178 1.292-.535a1.77 1.77 0 0 0 .537-1.294c0-.505-.18-.936-.537-1.294a1.756 1.756 0 0 0-1.292-.535" id="Fill-32"/><path d="M196.49 7.136a2.805 2.805 0 0 0-1.146-1.02c-.491-.247-1.136-.368-1.935-.368-.378 0-.729.048-1.05.147-.322.098-.61.224-.863.379a3.048 3.048 0 0 0-.652.525 2.54 2.54 0 0 0-.42.588h-.042V6h-3.027v10.218h3.153V11.13c0-.336.021-.66.064-.967.04-.308.128-.585.261-.83.134-.247.328-.442.58-.589.252-.147.58-.22.988-.22.405 0 .717.083.934.251.217.168.38.385.484.652.106.267.168.558.19.873.021.314.031.619.031.913v5.005h3.154v-5.634c0-.687-.05-1.325-.148-1.913a4.134 4.134 0 0 0-.556-1.535" id="Fill-33"/><path d="M207.054 12.002a2.454 2.454 0 0 1-.535.799c-.23.231-.502.418-.81.558-.31.14-.637.21-.988.21-.365 0-.698-.07-1-.21a2.804 2.804 0 0 1-.799-.558 2.466 2.466 0 0 1-.724-1.756 2.458 2.458 0 0 1 .724-1.755c.233-.23.499-.417.8-.558a2.364 2.364 0 0 1 .999-.208c.35 0 .679.07.988.208.308.14.58.327.81.558a2.479 2.479 0 0 1 .535 2.712zm.19-6.002v1.345h-.042a3.224 3.224 0 0 0-.505-.557c-.21-.19-.462-.36-.756-.514a4.75 4.75 0 0 0-2.23-.526c-.728 0-1.381.15-1.955.452a4.627 4.627 0 0 0-1.462 1.187 5.451 5.451 0 0 0-.924 1.702 6.151 6.151 0 0 0-.326 1.977c0 .772.119 1.48.357 2.125a4.867 4.867 0 0 0 1.02 1.67c.442.47.97.835 1.588 1.094.616.26 1.303.39 2.06.39.477 0 .985-.103 1.524-.305.539-.204.99-.551 1.357-1.042h.041v.99c0 .728-.228 1.327-.683 1.796-.455.47-1.167.705-2.134.705-.644 0-1.236-.12-1.777-.358a6.655 6.655 0 0 1-1.545-.966l-1.746 2.607a6.105 6.105 0 0 0 2.44 1.187c.884.204 1.78.305 2.69.305 1.992 0 3.474-.501 4.448-1.503.975-1.002 1.46-2.47 1.46-4.405V6h-2.9z" id="Fill-34"/></g></g></g></g></g></svg>