<svg width="45" height="46" viewBox="0 0 45 46" xmlns="http://www.w3.org/2000/svg" xmlns:xlink="http://www.w3.org/1999/xlink"><defs><path d="M0 22.623C0 10.129 10.074 0 22.5 0S45 10.129 45 22.623c0 12.494-10.074 22.623-22.5 22.623S0 35.117 0 22.623z" id="path-1"/></defs><g id="Symbols" stroke="none" stroke-width="1" fill="none" fill-rule="evenodd"><g id="Footer-" transform="translate(-288 -210)"><g id="Footer"><g id="Group-2" transform="translate(153 209)"><g id="Instagram" transform="translate(135 1)"><mask id="mask-2" fill="#fff"><use xlink:href="#path-1"/></mask><use id="back" fill="#FDAB75" xlink:href="#path-1"/><path d="M22.501 10.557c-3.259 0-3.668.015-4.948.073-1.277.06-2.15.262-2.912.56a5.87 5.87 0 0 0-2.126 1.392 5.926 5.926 0 0 0-1.385 2.137c-.298.768-.5 1.645-.558 2.929-.057 1.287-.072 1.698-.072 4.975 0 3.277.015 3.687.073 4.974.058 1.284.26 2.161.557 2.928a5.916 5.916 0 0 0 1.384 2.138 5.873 5.873 0 0 0 2.125 1.392c.764.299 1.636.502 2.913.56 1.28.06 1.689.074 4.948.074 3.259 0 3.667-.015 4.947-.073 1.277-.059 2.15-.262 2.914-.56a5.868 5.868 0 0 0 2.124-1.393 5.926 5.926 0 0 0 1.385-2.137c.295-.768.497-1.645.557-2.929.058-1.287.073-1.697.073-4.974s-.015-3.688-.073-4.975c-.06-1.285-.262-2.161-.557-2.928a5.925 5.925 0 0 0-1.385-2.138 5.862 5.862 0 0 0-2.125-1.391c-.765-.299-1.638-.502-2.915-.56-1.28-.06-1.688-.074-4.948-.074h.004zm6.406 4.178c-.795 0-1.44.648-1.44 1.448 0 .799.645 1.447 1.44 1.447.795 0 1.44-.648 1.44-1.447 0-.8-.645-1.448-1.44-1.448zM22.5 16.427c-3.403 0-6.162 2.774-6.162 6.196 0 3.422 2.759 6.195 6.162 6.195s6.162-2.773 6.162-6.195-2.759-6.196-6.162-6.196zm0 2.174c2.21 0 4 1.8 4 4.022 0 2.221-1.79 4.022-4 4.022s-4-1.8-4-4.022c0-2.221 1.79-4.022 4-4.022z" id="Shape" fill="#FFF" mask="url(#mask-2)"/></g></g></g></g></g></svg>